<svg width="50" height="50" viewBox="0 0 50 50" fill="none" xmlns="http://www.w3.org/2000/svg">
<rect width="50" height="50" rx="12" fill="url(#paint0_linear_1_19)"/>
<path d="M19.8728 28.735H30.1665C30.4107 28.735 30.6156 28.6567 30.7813 28.5C30.9557 28.3345 31.0429 28.13 31.0429 27.8862C31.0429 27.6424 30.9557 27.4378 30.7813 27.2724C30.6156 27.1069 30.4107 27.0242 30.1665 27.0242H19.8728C19.6199 27.0242 19.4063 27.1069 19.2319 27.2724C19.0662 27.4378 18.9834 27.6424 18.9834 27.8862C18.9834 28.13 19.0662 28.3345 19.2319 28.5C19.4063 28.6567 19.6199 28.735 19.8728 28.735ZM19.8728 33.6846H30.1665C30.4107 33.6846 30.6156 33.6019 30.7813 33.4366C30.9557 33.2712 31.0429 33.0708 31.0429 32.8359C31.0429 32.592 30.9557 32.3874 30.7813 32.2221C30.6156 32.0566 30.4107 31.9739 30.1665 31.9739H19.8728C19.6199 31.9739 19.4063 32.0566 19.2319 32.2221C19.0662 32.3874 18.9834 32.592 18.9834 32.8359C18.9834 33.0708 19.0662 33.2712 19.2319 33.4366C19.4063 33.6019 19.6199 33.6846 19.8728 33.6846ZM18.0547 39C16.7031 39 15.6873 38.6603 15.0071 37.9814C14.3357 37.3023 14 36.2792 14 34.9123V15.1007C14 13.7425 14.3357 12.7195 15.0071 12.0317C15.6873 11.3439 16.7031 11 18.0547 11H24.0583V20.5858C24.0583 22.2313 24.8823 23.0541 26.5304 23.0541H36V34.9123C36 36.2705 35.66 37.2891 34.9799 37.9683C34.3084 38.6561 33.2969 39 31.9454 39H18.0547ZM26.5696 21.2649C26.09 21.2649 25.8502 21.0298 25.8502 20.5597V11.1437C26.1205 11.1872 26.3952 11.3047 26.6742 11.4963C26.9533 11.6791 27.2454 11.9272 27.5506 12.2407L34.7575 19.5671C35.0714 19.8893 35.3198 20.1853 35.5031 20.4552C35.6861 20.7251 35.7995 20.995 35.8431 21.2649H26.5696Z" fill="white"/>
<defs>
<linearGradient id="paint0_linear_1_19" x1="25" y1="0" x2="25" y2="50" gradientUnits="userSpaceOnUse">
<stop stop-color="#313131"/>
<stop offset="1" stop-color="#131416"/>
</linearGradient>
</defs>
</svg>
