<svg width="50" height="50" viewBox="0 0 50 50" fill="none" xmlns="http://www.w3.org/2000/svg">
<rect width="50" height="50" rx="12" fill="url(#paint0_linear_1_22)"/>
<path d="M13.9196 36.071V25.4993L24.2463 16.3257C24.7488 15.8731 25.2513 15.8731 25.7538 16.3257L36.0804 25.4993V36.071C36.0804 36.994 35.8292 37.713 35.3266 38.2279C34.8326 38.7428 34.1459 39 33.2664 39H16.7462C15.8585 39 15.1633 38.7428 14.6608 38.2279C14.1667 37.713 13.9196 36.994 13.9196 36.071ZM11.0804 25.2197C10.7454 25.2197 10.4816 25.1132 10.2889 24.9002C10.0963 24.6783 10 24.4297 10 24.1546C10 23.8084 10.134 23.5199 10.402 23.2891L23.4925 11.6391C23.9615 11.213 24.464 11 25 11C25.536 11 26.0386 11.213 26.5076 11.6391L39.598 23.2891C39.866 23.5199 40 23.8084 40 24.1546C40 24.4297 39.9037 24.6783 39.7112 24.9002C39.5268 25.1132 39.2631 25.2197 38.9196 25.2197C38.7438 25.2197 38.5804 25.1753 38.4297 25.0866C38.2873 24.9978 38.1533 24.9002 38.0277 24.7937L25.4397 13.5963C25.3057 13.472 25.1592 13.4099 25 13.4099C24.8409 13.4099 24.6943 13.472 24.5603 13.5963L11.9849 24.7937C11.8509 24.9002 11.7086 24.9978 11.5578 25.0866C11.4154 25.1753 11.2563 25.2197 11.0804 25.2197ZM33.1785 18.1498V14.9677C33.1785 14.6748 33.2623 14.444 33.4297 14.2753C33.5972 14.0978 33.815 14.009 34.083 14.009H35.4272C35.7035 14.009 35.9214 14.0978 36.0804 14.2753C36.2479 14.444 36.3317 14.6748 36.3317 14.9677V20.9724L33.1785 18.1498Z" fill="white"/>
<defs>
<linearGradient id="paint0_linear_1_22" x1="25" y1="0" x2="25" y2="50" gradientUnits="userSpaceOnUse">
<stop stop-color="#313131"/>
<stop offset="1" stop-color="#131416"/>
</linearGradient>
</defs>
</svg>
