<svg width="50" height="50" viewBox="0 0 50 50" fill="none" xmlns="http://www.w3.org/2000/svg">
<rect width="50" height="50" rx="12" fill="url(#paint0_linear_1_21)"/>
<path d="M37.777 31.6622C37.777 32.8094 37.5078 33.6776 36.9694 34.2673C36.4311 34.8648 35.6237 35.1636 34.547 35.1636H14.6455C13.7588 35.1636 13.0939 34.8887 12.6506 34.3391C12.2072 33.7972 11.9658 32.9846 11.9262 31.9012L16.4504 27.7903C16.6958 27.5593 16.9452 27.392 17.1985 27.2884C17.4518 27.1769 17.713 27.1211 17.9822 27.1211C18.2593 27.1211 18.5324 27.1809 18.8015 27.3004C19.0786 27.4119 19.3398 27.5792 19.5852 27.8023L21.782 29.798L27.1493 24.9701C27.4264 24.7311 27.7113 24.5519 28.0042 24.4324C28.2971 24.3129 28.6059 24.2531 28.9304 24.2531C29.255 24.2531 29.5677 24.3169 29.8685 24.4443C30.1773 24.5638 30.4622 24.7471 30.7235 24.994L37.777 31.6622ZM19.8465 25.1135C19.3319 25.1135 18.8609 24.9901 18.4334 24.7431C18.0138 24.4881 17.6774 24.1456 17.4241 23.7154C17.1708 23.2852 17.0441 22.8112 17.0441 22.2933C17.0441 21.7835 17.1708 21.3134 17.4241 20.8832C17.6774 20.453 18.0138 20.1105 18.4334 19.8555C18.8609 19.6006 19.3319 19.4731 19.8465 19.4731C20.361 19.4731 20.8281 19.6006 21.2477 19.8555C21.6672 20.1105 22.0037 20.453 22.257 20.8832C22.5103 21.3134 22.637 21.7835 22.637 22.2933C22.637 22.8112 22.5103 23.2852 22.257 23.7154C22.0037 24.1456 21.6672 24.4881 21.2477 24.7431C20.8281 24.9901 20.361 25.1135 19.8465 25.1135ZM14.7286 36C13.4857 36 12.5516 35.6894 11.9262 35.068C11.3087 34.4545 11 33.5343 11 32.3075V17.7045C11 16.4697 11.3087 15.5455 11.9262 14.9321C12.5516 14.3107 13.4857 14 14.7286 14H35.2715C36.5221 14 37.4564 14.3107 38.0739 14.9321C38.6913 15.5535 39 16.4776 39 17.7045V32.3075C39 33.5343 38.6913 34.4545 38.0739 35.068C37.4564 35.6894 36.5221 36 35.2715 36H14.7286ZM14.7523 34.0762H35.2476C35.8335 34.0762 36.2848 33.9208 36.6013 33.61C36.926 33.2914 37.0881 32.8213 37.0881 32.1999V17.8121C37.0881 17.1907 36.926 16.7206 36.6013 16.402C36.2848 16.0833 35.8335 15.924 35.2476 15.924H14.7523C14.1586 15.924 13.7034 16.0833 13.3868 16.402C13.0701 16.7206 12.9118 17.1907 12.9118 17.8121V32.1999C12.9118 32.8213 13.0701 33.2914 13.3868 33.61C13.7034 33.9208 14.1586 34.0762 14.7523 34.0762Z" fill="white"/>
<defs>
<linearGradient id="paint0_linear_1_21" x1="25" y1="0" x2="25" y2="50" gradientUnits="userSpaceOnUse">
<stop stop-color="#313131"/>
<stop offset="1" stop-color="#131416"/>
</linearGradient>
</defs>
</svg>
