<svg width="50" height="50" viewBox="0 0 50 50" fill="none" xmlns="http://www.w3.org/2000/svg">
<rect width="50" height="50" rx="12" fill="url(#paint0_linear_1_20)"/>
<path d="M23.7675 39C23.4192 39 23.1245 38.9017 22.8833 38.7053C22.6511 38.5176 22.4903 38.2498 22.401 37.9014L21.7043 34.9539C21.4453 34.8647 21.1908 34.771 20.9407 34.6727C20.6906 34.5744 20.4539 34.4717 20.2307 34.3645L17.6584 35.9453C17.3637 36.1241 17.06 36.2 16.7474 36.173C16.4437 36.1463 16.1713 36.0123 15.9302 35.7713L14.2153 34.0565C13.9742 33.8153 13.8357 33.534 13.8 33.2123C13.7732 32.8909 13.8581 32.5872 14.0546 32.3014L15.622 29.7425C15.5148 29.5103 15.4121 29.2736 15.3139 29.0325C15.2156 28.7913 15.1308 28.5502 15.0593 28.3091L12.0852 27.599C11.7368 27.5186 11.4689 27.3623 11.2813 27.1301C11.0938 26.889 11 26.5942 11 26.2459V23.821C11 23.4816 11.0938 23.1958 11.2813 22.9636C11.4689 22.7225 11.7368 22.5617 12.0852 22.4813L15.0325 21.7713C15.1129 21.4944 15.2022 21.2354 15.3005 20.9942C15.4077 20.7531 15.5059 20.5253 15.5952 20.311L14.0278 17.7119C13.8402 17.4172 13.7554 17.118 13.7732 16.8143C13.8 16.5107 13.9384 16.2383 14.1885 15.9971L15.9302 14.2689C16.1713 14.0277 16.4393 13.8893 16.734 13.8536C17.0287 13.8179 17.3235 13.8893 17.6182 14.0679L20.2173 15.6756C20.4405 15.5595 20.6772 15.4523 20.9273 15.3541C21.1863 15.2469 21.4453 15.1486 21.7043 15.0593L22.401 12.0986C22.4903 11.7592 22.6511 11.4912 22.8833 11.2947C23.1245 11.0982 23.4192 11 23.7675 11H26.2326C26.5809 11 26.8712 11.0982 27.1034 11.2947C27.3446 11.4912 27.5053 11.7592 27.5857 12.0986L28.2824 15.0861C28.5592 15.1754 28.8182 15.2692 29.0594 15.3675C29.3095 15.4657 29.5417 15.5729 29.7561 15.689L32.3819 14.0679C32.6677 13.8893 32.9535 13.8223 33.2393 13.867C33.534 13.9116 33.8066 14.0456 34.0565 14.2689L35.8115 15.9971C36.0617 16.2383 36.1957 16.5107 36.2135 16.8143C36.2313 17.118 36.1511 17.4172 35.9723 17.7119L34.3914 20.311C34.4808 20.5253 34.5746 20.7531 34.6729 20.9942C34.7799 21.2354 34.8782 21.4944 34.9676 21.7713L37.9148 22.4813C38.2544 22.5617 38.5178 22.7225 38.7053 22.9636C38.9019 23.1958 39 23.4816 39 23.821V26.2459C39 26.5942 38.9019 26.889 38.7053 27.1301C38.5178 27.3623 38.2544 27.5186 37.9148 27.599L34.9409 28.3091C34.8604 28.5502 34.771 28.7913 34.6729 29.0325C34.5835 29.2736 34.4808 29.5103 34.3647 29.7425L35.9455 32.3014C36.1419 32.5872 36.2224 32.8909 36.1867 33.2123C36.16 33.534 36.026 33.8153 35.7848 34.0565L34.0565 35.7713C33.8155 36.0123 33.5386 36.1463 33.226 36.173C32.9222 36.2 32.6275 36.1241 32.3417 35.9453L29.7561 34.3645C29.5328 34.4717 29.2961 34.5744 29.046 34.6727C28.7959 34.771 28.5414 34.8647 28.2824 34.9539L27.5857 37.9014C27.5053 38.2498 27.3446 38.5176 27.1034 38.7053C26.8712 38.9017 26.5809 39 26.2326 39H23.7675ZM25.0001 29.7292C25.8664 29.7292 26.6568 29.5193 27.3714 29.0995C28.0859 28.6708 28.6575 28.0992 29.0862 27.3847C29.5149 26.6612 29.7293 25.8663 29.7293 25C29.7293 24.1336 29.5149 23.3432 29.0862 22.6287C28.6575 21.9053 28.0859 21.3336 27.3714 20.9139C26.6568 20.4851 25.8664 20.2708 25.0001 20.2708C24.1248 20.2708 23.3299 20.4851 22.6154 20.9139C21.9008 21.3336 21.3292 21.9053 20.9005 22.6287C20.4807 23.3432 20.2708 24.1336 20.2708 25C20.2708 25.8663 20.4807 26.6612 20.9005 27.3847C21.3292 28.0992 21.9008 28.6708 22.6154 29.0995C23.3299 29.5193 24.1248 29.7292 25.0001 29.7292Z" fill="white"/>
<defs>
<linearGradient id="paint0_linear_1_20" x1="25" y1="0" x2="25" y2="50" gradientUnits="userSpaceOnUse">
<stop stop-color="#313131"/>
<stop offset="1" stop-color="#131416"/>
</linearGradient>
</defs>
</svg>
